#!OML:ASF F:\VICON\USERDATA\INSTALL\rory3\rory3.ASF
:FULLY-SPECIFIED
:DEGREES
90
root 0.45956203309679444 17.724411133730637 14.592741885161729 -2.494386408092302 -2.7086814578438076 -3.001050819964612
lfemur -21.340334990840596 -2.1918946130176025 -18.785933043292243
ltibia 30.485919438607326
lfoot -9.404933403177605 -0.1495581038590288
ltoes -1.1175155147615898
rfemur -2.300459730340666 1.8905702114564482 26.9672225054016
rtibia 63.68102468601807
rfoot 2.4886489509939653 -4.979759063244511
rtoes 9.414931822095362
lowerback 11.179087275800825 1.9796757395416562 2.7362092964866926
upperback 0.11251496761777469 3.0358144106498495 0.939914899756337
thorax -6.032492533182284 1.4181676683454754 -1.0363589291827369
lowerneck -16.716248386720206 -3.5207669958960746 -1.6592801700893132
upperneck 20.032281315996187 -4.677624856591386 1.288169859872343
head 9.15408299741661 -2.198856158614542 0.11400548509043579
lclavicle -1.0017481858914425e-15 -8.414645473660846e-16
lhumerus -40.601125454789745 6.474196306136378 82.33859211482934
lradius 31.687151267283937
lwrist 6.057353639965804
lhand -28.692564831653613 18.779134864708062
lfingers 7.125020000000057
lthumb -2.054327248848569 48.75437579001623
rclavicle -1.0017481858914425e-15 -8.414645473660843e-16
rhumerus -25.88770211974839 -11.396813319690553 -83.25800335665605
rradius 40.185532351197594
rwrist -0.9262149500200496
rhand -17.6682342042295 29.919877953932065
rfingers 7.125020000000057
rthumb 8.590921091853156 -5.458777139555597
91
root 0.47480150658586306 17.742015826462097 17.03398747181545 -3.039545569156703 -3.0133306047274195 -2.172987218416316
lfemur -18.843017707443746 -2.4748508500306334 -20.249275572964606
ltibia 28.70688538021035
lfoot -10.495206549287042 0.30944977628634174
ltoes -0.3723218922006417
rfemur -5.663598108639139 0.8600699058570807 25.47358567456931
rtibia 70.56392148093246
rfoot 4.585096470784952 -5.272803146258173
rtoes 10.911021949840755
lowerback 11.135657961429658 1.8891908385425742 1.996189826554469
upperback 0.1588544016682783 2.821070522120707 0.7850253365611121
thorax -5.982234367352936 1.3333150509701124 -0.7281384464769675
lowerneck -16.573443827217076 -3.3586375786521163 -1.66693914286309
upperneck 20.43234462183662 -4.4585503964232105 1.2100052469482514
head 9.25364982376006 -2.0983351667625496 0.11289629746986446
lclavicle -9.85313051436692e-16 -8.288128479296778e-16
lhumerus -39.38833310429298 7.217831805127256 81.68341328003983
lradius 29.029506134143425
lwrist 5.63763005003171
lhand -28.72308679145323 19.29801742503162
lfingers 7.125020000000057
lthumb -2.0838073159266157 49.26951961032424
rclavicle -9.853130514366919e-16 -8.288128479296778e-16
rhumerus -26.288599747871203 -12.972916842686425 -82.68165197352921
rradius 37.6930394996882
rwrist 0.10848878395254768
rhand -17.550821028027087 29.317214142916523
rfingers 7.125020000000057
rthumb 8.70415661290739 -5.749571953417517
92
root 0.48235533879788345 17.77853903131091 19.553463778679497 -3.637875480876206 -3.3751895995754535 -1.142150891235699
lfemur -15.021688797064332 -2.935474374701681 -22.10882164627957
ltibia 26.58907886092466
lfoot -11.179274734890807 0.5987298483280421
ltoes 0.025728746567936334
rfemur -10.91796622403582 -0.49624687215033925 23.669573339388258
rtibia 78.48196333466821
rfoot 6.057737925735298 -5.528666385561961
rtoes 12.158107246845825
lowerback 11.096416349584398 1.6688189959959567 0.9786287044913267
upperback 0.2139520138606667 2.3968199458816977 0.6346760464651839
thorax -5.944532580451115 1.1567375249779834 -0.22191128589656306
lowerneck -16.432946854467872 -3.1133203931358064 -1.685887117583789
upperneck 20.867109044131556 -4.11980236318828 1.0960235316789253
head 9.359217549062418 -1.9428177289383488 0.11585848921751102
lclavicle -1.011709653973096e-15 -8.493151260433433e-16
lhumerus -37.414944650009026 7.698136909774934 80.94407083300835
lradius 26.260986104097483
lwrist 5.244896068854819
lhand -28.745918981713587 19.78345408620028
lfingers 7.125020000000057
lthumb -2.10586668443826 49.7502655759355
rclavicle -1.0117096539730965e-15 -8.493151260433431e-16
rhumerus -27.45726125198415 -15.147193792200987 -81.8799122667096
rradius 34.780515462806015
rwrist 1.4226113718583013
rhand -17.424377337144126 28.81290449199981
rfingers 7.125020000000057
rthumb 8.826064820100974 -6.010221498587306
93
root 0.46986176913785344 17.81487504333928 20.93216577747668 -3.9537818112873584 -3.4412501305370657 0.08691239471890144
lfemur -10.206535125749271 -3.2477780301778094 -24.314064881218442
ltibia 25.689273829205483
lfoot -11.897315410248668 0.7048201274700849
ltoes 0.07039371581620824
rfemur -18.259073202646885 -2.0143540865015317 21.67267598531066
rtibia 85.82220364076154
rfoot 5.776869067556008 -6.1621331757162645
rtoes 12.240956266624346
lowerback 11.282840780180369 1.260801498428155 -0.36210580018983096
upperback 0.2698380314315761 1.6831630741132775 0.5091053674596322
thorax -6.038107401246868 0.8490701808757117 0.5516141063912565
lowerneck -16.415893338482014 -2.8561142233779124 -1.7459955330046313
upperneck 20.954652983012572 -3.7585508516612656 1.0760016199471631
head 9.372142231217037 -1.771913163104188 0.1603873051426692
lclavicle -1.0270133604194506e-15 -8.612494735908492e-16
lhumerus -34.90193009833172 6.774093384932849 80.79164820427538
lradius 26.445076805391665
lwrist 5.8242002085218125
lhand -28.687033834389684 19.81320396888742
lfingers 7.125020000000057
lthumb -2.049034299567656 49.77490229149421
rclavicle -1.0270133604194512e-15 -8.612494735908492e-16
rhumerus -29.800174036201692 -16.83507164181983 -81.42555792266992
rradius 33.87026884479215
rwrist 2.317904721748995
rhand -17.37677200443877 28.72579934827353
rfingers 7.125020000000057
rthumb 8.871883605213636 -5.9065644650653955
